<svg width="48" height="48" viewBox="0 0 48 48" fill="none" xmlns="http://www.w3.org/2000/svg">
<path fill-rule="evenodd" clip-rule="evenodd" d="M32.1578 26.1848C32.1578 26.9402 31.5447 27.2631 30.7894 27.2631H29.4209C28.6656 27.2631 28.0525 26.9402 28.0525 26.1848V24.8164C28.0525 23.3043 26.8278 21.7895 25.3157 21.7895H22.5789C21.0668 21.7895 19.8421 23.3043 19.8421 24.8164V26.1848C19.8421 26.9402 19.229 27.2631 18.4736 27.2631H17.1052C16.3499 27.2631 15.7368 26.9402 15.7368 26.1848V15.1513C15.7368 14.9693 15.8093 14.7955 15.9366 14.6669L22.9661 7.63874C23.5012 7.10369 24.3674 7.10369 24.9011 7.63874L31.958 14.6943C32.0852 14.8229 32.1578 14.9967 32.1578 15.1773V26.1848ZM34.8946 14.4343C34.8946 14.0717 34.7509 13.7255 34.4964 13.4682L25.8768 4.80617C24.8094 3.73471 23.0756 3.7306 22.0041 4.79796L13.4023 13.3711C13.1451 13.6283 13 13.9759 13 14.3399V27.5533C13 29.0654 14.2247 30 15.7368 30H19.8421C21.3542 30 22.5789 29.0654 22.5789 27.5533V26.1849C22.5789 25.4295 23.1919 24.8165 23.9473 24.8165C24.7027 24.8165 25.3157 25.4295 25.3157 26.1849V27.5533C25.3157 29.0654 26.5404 30 28.0525 30H32.1578C33.6699 30 34.8946 29.0654 34.8946 27.5533V14.4343Z" fill="#ABABAB"/>
</svg>
