<svg width="48" height="48" viewBox="0 0 48 48" fill="none" xmlns="http://www.w3.org/2000/svg">
<path fill-rule="evenodd" clip-rule="evenodd" d="M32.5312 27.4H15.4695C14.5512 27.4 13.8731 26.4939 14.2195 25.6606C15.8265 21.8074 19.6019 19.6 23.9997 19.6C28.3988 19.6 32.1743 21.8074 33.7813 25.6606C34.1276 26.4939 33.4495 27.4 32.5312 27.4M18.6917 11.8C18.6917 8.9322 21.0737 6.6 23.9998 6.6C26.9272 6.6 29.3079 8.9322 29.3079 11.8C29.3079 14.6678 26.9272 17 23.9998 17C21.0737 17 18.6917 14.6678 18.6917 11.8M36.9424 26.9268C35.9776 22.5601 32.9599 19.3374 28.9881 17.8749C31.0928 16.2148 32.3203 13.5303 31.8691 10.591C31.3463 7.18107 28.4507 4.45237 24.9553 4.05457C20.1302 3.50467 16.0376 7.18367 16.0376 11.8C16.0376 14.257 17.2001 16.4462 19.0128 17.8749C15.0397 19.3374 12.0233 22.5601 11.0572 26.9268C10.7069 28.5141 12.0127 30 13.6702 30H34.3294C35.9882 30 37.294 28.5141 36.9424 26.9268Z" fill="#ABABAB"/>
</svg>
