<svg
  aria-hidden="true"
  style="position: absolute; width: 0; height: 0"
  width="24"
  height="24"
  xmlns="http://www.w3.org/2000/svg"
  overflow="hidden"
>
  <defs>
    <symbol id="eye" viewBox="0 0 24 24">
      <path fill="currentColor" fill-opacity=".01" d="M0 0h24v24H0z" />
      <mask
        id="mask0_4_90"
        style="mask-type: luminance"
        maskUnits="userSpaceOnUse"
        x="0"
        y="4"
        width="24"
        height="16"
      >
        <path
          d="M12 4c2.728 0 5.336 1.43 7.766 3.781.83.802 1.58 1.658 2.24 2.515.399.516.681.923.836 1.165l.345.539-.345.54c-.155.241-.437.648-.836 1.164a23.31 23.31 0 0 1-2.24 2.515c-2.43 2.35-5.038 3.78-7.765 3.781-2.728 0-5.337-1.43-7.767-3.781a23.309 23.309 0 0 1-2.24-2.515 17.485 17.485 0 0 1-.836-1.165L.813 12l.345-.54c.155-.241.437-.648.836-1.164a23.311 23.311 0 0 1 2.24-2.515C6.664 5.431 9.273 4 12 4Zm0 2C9.896 6 7.719 7.194 5.625 9.219A21.338 21.338 0 0 0 3.216 12a21.335 21.335 0 0 0 2.408 2.781C7.718 16.806 9.895 18 12.001 18c2.104 0 4.282-1.194 6.375-3.219A21.318 21.318 0 0 0 20.784 12a21.324 21.324 0 0 0-2.407-2.781C16.282 7.194 14.104 6 12 6Zm0 2a4 4 0 1 1 0 8 4 4 0 0 1 0-8Zm0 2a2 2 0 1 0 0 4 2 2 0 0 0 0-4Z"
          fill="currentColor"
        />
      </mask>
      <g mask="url(#mask0_4_90)">
        <path fill="currentColor" d="M0 0h24v24H0z" />
      </g>
    </symbol>
    <symbol id="status" viewBox="0 0 24 24">
      <path
        fill-rule="evenodd"
        clip-rule="evenodd"
        d="M21.6 20.4a1.2 1.2 0 0 1-2.4 0V3.6a1.2 1.2 0 0 1 2.4 0v16.8Zm0-20.4h-2.4a2.4 2.4 0 0 0-2.4 2.4v19.2a2.4 2.4 0 0 0 2.4 2.4h2.4a2.4 2.4 0 0 0 2.4-2.4V2.4A2.4 2.4 0 0 0 21.6 0ZM4.8 20.4a1.2 1.2 0 0 1-2.4 0v-12a1.2 1.2 0 0 1 2.4 0v12Zm0-15.6H2.4A2.4 2.4 0 0 0 0 7.2v14.4A2.4 2.4 0 0 0 2.4 24h2.4a2.4 2.4 0 0 0 2.4-2.4V7.2a2.4 2.4 0 0 0-2.4-2.4Zm8.4 15.6a1.2 1.2 0 0 1-2.4 0v-4.8a1.2 1.2 0 0 1 2.4 0v4.8Zm0-8.4h-2.4a2.4 2.4 0 0 0-2.4 2.4v7.2a2.4 2.4 0 0 0 2.4 2.4h2.4a2.4 2.4 0 0 0 2.4-2.4v-7.2a2.4 2.4 0 0 0-2.4-2.4Z"
        fill="currentcolor"
      />
    </symbol>
    <symbol id="strength" viewBox="0 0 24 24">
      <path fill="currentColor" fill-opacity=".01" d="M0 0h24v24H0z" />
      <path
        d="M20.114 13.062c-.632-.83-1.587-1.252-2.84-1.252-1.45 0-2.8.652-3.7 1.765a4.146 4.146 0 0 0-4.235.151c.075-1.374.02-3.557-.787-5.517.23-.247.698-.616 1.346-.442a1.463 1.463 0 0 0 1.457-.425c.744-.807.964-1.75.62-2.657C11.428 3.246 10.448 3.012 9.912 3c-.704-.014-1.502.316-2.247.932-.66.545-1.207 1.25-1.502 1.936-.454 1.055-1.086 3.843-1.511 6.138-.334 1.803-.852 4.964-.572 5.885a.512.512 0 0 0 .421.358c.016.003 1.67.236 3.77 1.173.81.361 2.41.578 4.151.578.296 0 .595-.006.896-.02 1.45-.06 4.147-.335 5.909-1.478 1.087-.706 1.663-1.661 1.663-2.763 0-1.084-.269-2.01-.776-2.677Zm-1.445 4.58c-2.693 1.748-8.53 1.492-9.98.845A17.413 17.413 0 0 0 5.023 17.3c-.03-.716.144-2.453.636-5.108.482-2.607 1.09-5.096 1.445-5.92.45-1.049 1.748-2.249 2.759-2.249h.027c.184.004.744.017 1.127 1.025.205.54.066 1.077-.415 1.598a.447.447 0 0 1-.438.13c-1.329-.356-2.306.554-2.638 1.085a.512.512 0 0 0-.031.484c1.172 2.57.803 5.82.713 6.465a4.13 4.13 0 0 0-.662 1.493.512.512 0 0 0 1 .22 3.128 3.128 0 0 1 3.037-2.435c.66 0 1.29.204 1.823.59l.008.005.007.006c.356.238.815.82.962 1.024a.511.511 0 1 0 .832-.598 7.403 7.403 0 0 0-.81-.938 3.723 3.723 0 0 1 2.87-1.343c2.14 0 2.59 1.58 2.59 2.904 0 .76-.391 1.381-1.196 1.903Z"
        fill="currentColor"
        stroke="currentColor"
      />
    </symbol>
    <symbol id="lightning" viewBox="0 0 24 24">
      <path fill="currentColor" fill-opacity=".01" d="M0 0h24v24H0z" />
      <mask
        id="mask0_4_113"
        style="mask-type: luminance"
        maskUnits="userSpaceOnUse"
        x="3"
        y="1"
        width="18"
        height="22"
      >
        <path
          d="M15 9h5.08L9 22.85V15H3.92L15 1.15V9Zm-6.92 4H11v4.15L15.92 11H13V6.85L8.08 13Z"
          fill="currentColor"
        />
      </mask>
      <g mask="url(#mask0_4_113)">
        <path fill="currentColor" d="M0 0h24v24H0z" />
      </g>
    </symbol>
    <symbol id="appointments" viewBox="0 0 24 24">
      <path fill="currentColor" fill-opacity=".01" d="M0 0h24v24H0z" />
      <path
        fill-rule="evenodd"
        clip-rule="evenodd"
        d="M11 18h2v1a1 1 0 0 1-2 0v-1Zm0 4h2a2 2 0 0 0 2-2v-3a1 1 0 0 0-1-1h-4a1 1 0 0 0-1 1v3a2 2 0 0 0 2 2Zm3.162-9.979c-2.68-.028-1.694-.028-4.325 0C8.981 10.931 8 8.79 8 7.851 8 5.728 9.794 4 12 4s4 1.728 4 3.851c0 .939-.981 3.08-1.838 4.17ZM12 2C8.686 2 6 4.62 6 7.851c0 1.63 1.42 4.537 2.652 5.848.197.209.467.329.754.326 3.706-.038 5.195.001 5.188 0a1.02 1.02 0 0 0 .754-.326C16.58 12.388 18 9.481 18 7.851 18 4.62 15.314 2 12 2Z"
        fill="currentColor"
      />
    </symbol>
    <symbol id="tips" viewBox="0 0 24 24">
      <path fill="currentColor" fill-opacity=".01" d="M0 0h24v24H0z" />
      <path
        fill-rule="evenodd"
        clip-rule="evenodd"
        d="M11 18h2v1a1 1 0 0 1-2 0v-1Zm0 4h2a2 2 0 0 0 2-2v-3a1 1 0 0 0-1-1h-4a1 1 0 0 0-1 1v3a2 2 0 0 0 2 2Zm3.162-9.979c-2.68-.028-1.694-.028-4.325 0C8.981 10.931 8 8.79 8 7.851 8 5.728 9.794 4 12 4s4 1.728 4 3.851c0 .939-.981 3.08-1.838 4.17ZM12 2C8.686 2 6 4.62 6 7.851c0 1.63 1.42 4.537 2.652 5.848.197.209.467.329.754.326 3.706-.038 5.195.001 5.188 0a1.02 1.02 0 0 0 .754-.326C16.58 12.388 18 9.481 18 7.851 18 4.62 15.314 2 12 2Z"
        fill="currentColor"
      />
    </symbol>
    <symbol id="trails" viewBox="0 0 24 24">
      <path fill="currentColor" fill-opacity=".01" d="M0 0h24v24H0z" />
      <path
        fill-rule="evenodd"
        clip-rule="evenodd"
        d="M11.1 9.3H9.3V7.5h1.8V5.7h1.8v1.8h1.8v1.8h-1.8v1.8h-1.8V9.3Zm7.2 2.7V9.3l.9 2.7h-.9Zm.9 7.2H4.8v-5.4h3.6v3.6h7.2v-3.6h3.6v5.4ZM5.7 9.3V12h-.9l.9-2.7Zm1.8-4.5h9V12h-2.7v3.6h-3.6V12H7.5V4.8Zm11.7 1.8h-.9V3H5.7v3.6h-.9L3 12v9h18v-9l-1.8-5.4Z"
        fill="currentColor"
      />
    </symbol>
    <symbol id="info-circle" viewBox="0 0 24 24">
      <path fill="currentColor" fill-opacity=".01" d="M2 2h20v20H2z" />
      <mask
        id="mask0_4_142"
        style="mask-type: luminance"
        maskUnits="userSpaceOnUse"
        x="2"
        y="2"
        width="20"
        height="20"
      >
        <path
          d="M12 2c5.523 0 10 4.477 10 10s-4.477 10-10 10S2 17.523 2 12 6.477 2 12 2Zm0 2.5a7.5 7.5 0 1 0 0 15 7.5 7.5 0 0 0 0-15Zm1.255 11.248h-2.501v-5h2.5v5ZM12 6.998A1.25 1.25 0 1 1 12 9.5a1.25 1.25 0 0 1 0-2.501Z"
          fill="currentColor"
        />
      </mask>
      <g mask="url(#mask0_4_142)">
        <path fill="currentColor" d="M2 2h20v20H2z" />
      </g>
    </symbol>
    <symbol id="arrow-left" viewBox="0 0 24 24">
      <mask
        id="mask"
        mask-type="luminance"
        x="2"
        y="3"
        width="18"
        height="16"
        maskUnits="userSpaceOnUse"
      >
        <path
          d="M7.44451 9.62498H19.25V12.375H7.44451L11.9722 16.9027L10.0277 18.8473L2.18042 11L10.0277 3.15271L11.9722 5.09725L7.44451 9.62498Z"
          fill="white"
        />
      </mask>
      <g mask="url(#mask)">
        <rect width="24" height="24" fill="currentColor" />
      </g>
    </symbol>
    <symbol id="community" viewBox="0 0 24 24">
      <path fill="currentColor" fill-opacity=".01" d="M0 0h24v24H0z" />
      <path
        d="M20.807 7.925c-.684 0-1.24.554-1.24 1.236a1.238 1.238 0 0 0 2.476 0c0-.682-.555-1.236-1.236-1.236Zm-17.774 0c-.684 0-1.239.554-1.239 1.236a1.238 1.238 0 0 0 2.476 0c0-.682-.555-1.236-1.237-1.236Zm14.094-2.249a1.84 1.84 0 0 0 0 3.679 1.841 1.841 0 0 0 1.841-1.838 1.844 1.844 0 0 0-1.84-1.841Zm5.71 11.189h-2.096v-3.858c0-.663-.195-1.278-.508-1.815.185-.054.374-.092.574-.092 1.117 0 2.03.912 2.03 2.033v3.732ZM6.71 5.676a1.843 1.843 0 0 0-1.842 1.841 1.84 1.84 0 0 0 3.68 0A1.842 1.842 0 0 0 6.71 5.676ZM3.033 11.1c.2 0 .386.038.571.092a3.56 3.56 0 0 0-.507 1.815v3.858H1v-3.732c0-1.12.913-2.033 2.033-2.033ZM11.916 2a2.724 2.724 0 0 0-2.72 2.72c0 1.5 1.22 2.722 2.72 2.722 1.5 0 2.722-1.222 2.722-2.722A2.724 2.724 0 0 0 11.916 2Zm8.152 16.3h-3.212v-5.87c0-.807-.213-1.558-.557-2.231.263-.078.54-.133.828-.133 1.62 0 2.94 1.318 2.94 2.94v5.295Zm-13.09-5.87v5.87H3.77v-5.293a2.943 2.943 0 0 1 2.941-2.94c.29 0 .563.054.825.132a4.876 4.876 0 0 0-.559 2.232ZM7.65 20h8.532v-7.57a4.271 4.271 0 0 0-4.267-4.265 4.27 4.27 0 0 0-4.265 4.266V20Z"
        fill="currentColor"
      />
    </symbol>
    <symbol id="chat" viewBox="0 0 24 24">
      <path
        fill-rule="evenodd"
        clip-rule="evenodd"
        d="M11.958 2C6 2 1.265 7.127 2.095 13.125c.529 3.822 3.428 7.031 7.225 8.043 1.414.377 2.874.457 4.34.204 1.224-.212 2.48-.117 3.679.183l1.457.364c1.889.473 3.605-1.208 3.122-3.06l-.278-1.069c-.302-1.16-.367-2.385-.055-3.542a9.657 9.657 0 0 0 .104-4.588C20.77 5.415 16.873 2 11.958 2Zm0 2c3.952 0 7.047 2.71 7.776 6.083a7.649 7.649 0 0 1-.08 3.643c-1.35 4.992 2.598 6.996-1.83 5.888-1.473-.368-3.008-.472-4.505-.213a8.09 8.09 0 0 1-3.484-.165c-3.027-.807-5.342-3.373-5.76-6.385C3.406 7.997 7.27 4 11.959 4Z"
        fill="currentColor"
      />
    </symbol>
    <symbol id="info" viewBox="0 0 24 24">
      <path
        fill-rule="evenodd"
        clip-rule="evenodd"
        d="M18.408 13.776a25.94 25.94 0 0 1-4.634 4.628c1.427.824 4.775 2.318 5.86 1.233.74-.74.4-3.056-1.226-5.86ZM12 17.251a24.507 24.507 0 0 0 5.246-5.245 24.48 24.48 0 0 0-5.245-5.245 24.486 24.486 0 0 0-5.247 5.245 24.49 24.49 0 0 0 5.247 5.245Zm-1.773 1.153a25.94 25.94 0 0 1-4.634-4.628c-1.626 2.805-1.967 5.12-1.226 5.861 1.075 1.074 4.394-.385 5.86-1.233Zm-4.634-8.168a25.906 25.906 0 0 1 4.634-4.627c-1.425-.825-4.774-2.32-5.86-1.234-.74.74-.4 3.056 1.226 5.861Zm8.18-4.627a25.909 25.909 0 0 1 4.634 4.627c3.61-6.227.88-7.814-4.634-4.627Zm5.89 6.397c5.434 8.491.764 13.059-7.663 7.668-8.406 5.378-13.115.851-7.662-7.668C-1.058 3.574 3.492-1.105 12 4.338c8.424-5.388 13.102-.83 7.663 7.668Zm-6.599-1.06a1.497 1.497 0 1 1-2.119 2.116 1.497 1.497 0 0 1 2.12-2.116Z"
        fill="currentColor"
      />
    </symbol>
    <symbol id="search" viewBox="0 0 24 24">
      <path
        d="M10.889 2a8.889 8.889 0 0 1 8.888 8.889 8.847 8.847 0 0 1-1.869 5.449L22 20.428 20.429 22l-4.092-4.09A8.889 8.889 0 1 1 10.889 2Zm0 2.223a6.675 6.675 0 0 0-6.667 6.666 6.675 6.675 0 0 0 6.667 6.667 6.675 6.675 0 0 0 6.667-6.667 6.675 6.675 0 0 0-6.667-6.666Z"
        fill="currentColor"
      />
    </symbol>
    <symbol id="arrow-right" viewBox="0 0 24 24">
      <path fill="currentColor" fill-opacity=".01" d="M0 0h24v24H0z" />
      <mask
        id="mask0_4_187"
        style="mask-type: luminance"
        maskUnits="userSpaceOnUse"
        x="3"
        y="3"
        width="19"
        height="18"
      >
        <path
          d="M15.879 13.5H3v-3h12.879l-4.94-4.94 2.122-2.12L21.62 12l-8.56 8.56-2.122-2.12 4.94-4.94Z"
          fill="currentColor"
        />
      </mask>
      <g mask="url(#mask0_4_187)">
        <path fill="currentColor" d="M0 0h24v24H0z" />
      </g>
    </symbol>
    <symbol
      id="stats"
      viewBox="0 0 48 48"
      fill="none"
      xmlns="http://www.w3.org/2000/svg"
    >
      <path
        fill-rule="evenodd"
        clip-rule="evenodd"
        d="M34.4002 15.6994H29.5746C29.4017 15.6994 29.2366 15.7683 29.1144 15.8892L27.2931 17.7118C26.9928 18.0121 26.4884 17.9471 26.2726 17.5805C23.3853 12.6509 23.8013 13.362 23.2371 12.3974C22.8068 11.6629 21.798 11.5342 21.1961 12.1361L20.5474 12.7835L20.5578 12.8017L17.8499 15.5096C17.7277 15.6305 17.5626 15.6994 17.3897 15.6994H13.6002V7.89937C13.6002 7.18177 14.1826 6.59937 14.9002 6.59937H33.1002C33.8178 6.59937 34.4002 7.18177 34.4002 7.89937V15.6994ZM34.4002 26.0996C34.4002 26.8172 33.8178 27.3996 33.1002 27.3996H14.9002C14.1826 27.3996 13.6002 26.8172 13.6002 26.0996V18.2996H18.4687C18.6416 18.2996 18.8067 18.2307 18.9289 18.1098L21.3209 15.7165C21.6212 15.4149 22.1256 15.4799 22.3414 15.8478C25.1988 20.7254 24.6294 19.7491 25.3561 21.001C25.7838 21.7381 26.7939 21.8707 27.3971 21.2688L30.1895 18.4894C30.3104 18.3672 30.4755 18.2996 30.6471 18.2996H34.4002V26.0996ZM34.4 4H13.6C12.1635 4 11 5.1635 11 6.6V27.4C11 28.8352 12.1635 30 13.6 30H34.4C35.8365 30 37 28.8352 37 27.4V6.6C37 5.1635 35.8365 4 34.4 4V4Z"
        fill="#ABABAB"
      />
    </symbol>

    <symbol
      id="stats-active"
      viewBox="0 0 48 48"
      fill="none"
      xmlns="http://www.w3.org/2000/svg"
    >
      <path
        fill-rule="evenodd"
        clip-rule="evenodd"
        d="M34.4002 15.6994H29.5746C29.4017 15.6994 29.2366 15.7683 29.1144 15.8892L27.2931 17.7118C26.9928 18.0121 26.4884 17.9471 26.2726 17.5805C23.3853 12.6509 23.8013 13.362 23.2371 12.3974C22.8068 11.6629 21.798 11.5342 21.1961 12.1361L20.5474 12.7835L20.5578 12.8017L17.8499 15.5096C17.7277 15.6305 17.5626 15.6994 17.3897 15.6994H13.6002V7.89937C13.6002 7.18177 14.1826 6.59937 14.9002 6.59937H33.1002C33.8178 6.59937 34.4002 7.18177 34.4002 7.89937V15.6994ZM34.4002 26.0996C34.4002 26.8172 33.8178 27.3996 33.1002 27.3996H14.9002C14.1826 27.3996 13.6002 26.8172 13.6002 26.0996V18.2996H18.4687C18.6416 18.2996 18.8067 18.2307 18.9289 18.1098L21.3209 15.7165C21.6212 15.4149 22.1256 15.4799 22.3414 15.8478C25.1988 20.7254 24.6294 19.7491 25.3561 21.001C25.7838 21.7381 26.7939 21.8707 27.3971 21.2688L30.1895 18.4894C30.3104 18.3672 30.4755 18.2996 30.6471 18.2996H34.4002V26.0996ZM34.4 4H13.6C12.1635 4 11 5.1635 11 6.6V27.4C11 28.8352 12.1635 30 13.6 30H34.4C35.8365 30 37 28.8352 37 27.4V6.6C37 5.1635 35.8365 4 34.4 4V4Z"
        fill="#52D1AB"
      />
      <circle cx="24" cy="40" r="2" fill="#52D1AB" />
    </symbol>
    <symbol id="profile" viewBox="0 0 48 48" fill="none">
      <path
        fill-rule="evenodd"
        clip-rule="evenodd"
        d="M32.5312 27.4H15.4695C14.5512 27.4 13.8731 26.4939 14.2195 25.6606C15.8265 21.8074 19.6019 19.6 23.9997 19.6C28.3988 19.6 32.1743 21.8074 33.7813 25.6606C34.1276 26.4939 33.4495 27.4 32.5312 27.4M18.6917 11.8C18.6917 8.9322 21.0737 6.6 23.9998 6.6C26.9272 6.6 29.3079 8.9322 29.3079 11.8C29.3079 14.6678 26.9272 17 23.9998 17C21.0737 17 18.6917 14.6678 18.6917 11.8M36.9424 26.9268C35.9776 22.5601 32.9599 19.3374 28.9881 17.8749C31.0928 16.2148 32.3203 13.5303 31.8691 10.591C31.3463 7.18107 28.4507 4.45237 24.9553 4.05457C20.1302 3.50467 16.0376 7.18367 16.0376 11.8C16.0376 14.257 17.2001 16.4462 19.0128 17.8749C15.0397 19.3374 12.0233 22.5601 11.0572 26.9268C10.7069 28.5141 12.0127 30 13.6702 30H34.3294C35.9882 30 37.294 28.5141 36.9424 26.9268Z"
        fill="#ABABAB"
      />
    </symbol>

    <symbol id="profile-active" viewBox="0 0 48 48" fill="none">
      <path
        fill-rule="evenodd"
        clip-rule="evenodd"
        d="M32.5312 27.4H15.4695C14.5512 27.4 13.8731 26.4939 14.2195 25.6606C15.8265 21.8074 19.6019 19.6 23.9997 19.6C28.3988 19.6 32.1743 21.8074 33.7813 25.6606C34.1276 26.4939 33.4495 27.4 32.5312 27.4M18.6917 11.8C18.6917 8.9322 21.0737 6.6 23.9998 6.6C26.9272 6.6 29.3079 8.9322 29.3079 11.8C29.3079 14.6678 26.9272 17 23.9998 17C21.0737 17 18.6917 14.6678 18.6917 11.8M36.9424 26.9268C35.9776 22.5601 32.9599 19.3374 28.9881 17.8749C31.0928 16.2148 32.3203 13.5303 31.8691 10.591C31.3463 7.18107 28.4507 4.45237 24.9553 4.05457C20.1302 3.50467 16.0376 7.18367 16.0376 11.8C16.0376 14.257 17.2001 16.4462 19.0128 17.8749C15.0397 19.3374 12.0233 22.5601 11.0572 26.9268C10.7069 28.5141 12.0127 30 13.6702 30H34.3294C35.9882 30 37.294 28.5141 36.9424 26.9268Z"
        fill="#52D1B7"
      />
      <circle cx="24" cy="40" r="2" fill="#52D1AB" />
    </symbol>
    <symbol id="home" viewBox="0 0 48 48" fill="none">
      <path
        fill-rule="evenodd"
        clip-rule="evenodd"
        d="M32.1578 26.1848C32.1578 26.9402 31.5447 27.2631 30.7894 27.2631H29.4209C28.6656 27.2631 28.0525 26.9402 28.0525 26.1848V24.8164C28.0525 23.3043 26.8278 21.7895 25.3157 21.7895H22.5789C21.0668 21.7895 19.8421 23.3043 19.8421 24.8164V26.1848C19.8421 26.9402 19.229 27.2631 18.4736 27.2631H17.1052C16.3499 27.2631 15.7368 26.9402 15.7368 26.1848V15.1513C15.7368 14.9693 15.8093 14.7955 15.9366 14.6669L22.9661 7.63874C23.5012 7.10369 24.3674 7.10369 24.9011 7.63874L31.958 14.6943C32.0852 14.8229 32.1578 14.9967 32.1578 15.1773V26.1848ZM34.8946 14.4343C34.8946 14.0717 34.7509 13.7255 34.4964 13.4682L25.8768 4.80617C24.8094 3.73471 23.0756 3.7306 22.0041 4.79796L13.4023 13.3711C13.1451 13.6283 13 13.9759 13 14.3399V27.5533C13 29.0654 14.2247 30 15.7368 30H19.8421C21.3542 30 22.5789 29.0654 22.5789 27.5533V26.1849C22.5789 25.4295 23.1919 24.8165 23.9473 24.8165C24.7027 24.8165 25.3157 25.4295 25.3157 26.1849V27.5533C25.3157 29.0654 26.5404 30 28.0525 30H32.1578C33.6699 30 34.8946 29.0654 34.8946 27.5533V14.4343Z"
        fill="#ABABAB"
      />
    </symbol>

    <symbol id="home-active" viewBox="0 0 48 48" fill="none">
      <path
        fill-rule="evenodd"
        clip-rule="evenodd"
        d="M32.1578 26.1848C32.1578 26.9402 31.5447 27.2631 30.7894 27.2631H29.4209C28.6656 27.2631 28.0525 26.9402 28.0525 26.1848V24.8164C28.0525 23.3043 26.8278 21.7895 25.3157 21.7895H22.5789C21.0668 21.7895 19.8421 23.3043 19.8421 24.8164V26.1848C19.8421 26.9402 19.229 27.2631 18.4736 27.2631H17.1052C16.3499 27.2631 15.7368 26.9402 15.7368 26.1848V15.1513C15.7368 14.9693 15.8093 14.7955 15.9366 14.6669L22.9661 7.63874C23.5012 7.10369 24.3674 7.10369 24.9011 7.63874L31.958 14.6943C32.0852 14.8229 32.1578 14.9967 32.1578 15.1773V26.1848ZM34.8946 14.4343C34.8946 14.0717 34.7509 13.7255 34.4964 13.4682L25.8768 4.80617C24.8094 3.73471 23.0756 3.7306 22.0041 4.79796L13.4023 13.3711C13.1451 13.6283 13 13.9759 13 14.3399V27.5533C13 29.0654 14.2247 30 15.7368 30H19.8421C21.3542 30 22.5789 29.0654 22.5789 27.5533V26.1849C22.5789 25.4295 23.1919 24.8165 23.9473 24.8165C24.7027 24.8165 25.3157 25.4295 25.3157 26.1849V27.5533C25.3157 29.0654 26.5404 30 28.0525 30H32.1578C33.6699 30 34.8946 29.0654 34.8946 27.5533V14.4343Z"
        fill="#52D1AB"
      />
      <circle cx="24" cy="40" r="2" fill="#52D1AB" />
    </symbol>
    <symbol id="chevron-down" viewBox="0 0 16 8">
      <path
        fill-rule="evenodd"
        clip-rule="evenodd"
        d="M1.186 1.233a.676.676 0 0 0 0 .932l5.259 5.449a1.24 1.24 0 0 0 1.799 0l5.297-5.489a.676.676 0 0 0 .006-.925.621.621 0 0 0-.906-.007L7.794 6.216a.62.62 0 0 1-.9 0L2.085 1.233a.62.62 0 0 0-.899 0"
        fill="currentcolor"
        stroke="currentcolor"
      />
      <path
        d="M1.186 1.233a.676.676 0 0 0 0 .932l5.259 5.449a1.24 1.24 0 0 0 1.799 0l5.297-5.489a.676.676 0 0 0 .006-.925.621.621 0 0 0-.906-.007L7.794 6.216a.62.62 0 0 1-.9 0L2.085 1.233a.62.62 0 0 0-.899 0"
        stroke="currentcolor"
        fill="currentcolor"
      />
    </symbol>
    <symbol id="chevron-up" viewBox="0 0 16 7">
      <path
        fill-rule="evenodd"
        clip-rule="evenodd"
        d="M13.81 7.767a.666.666 0 0 0 0-.932L8.439 1.386a1.285 1.285 0 0 0-1.838 0l-5.41 5.489a.666.666 0 0 0-.007.925c.252.264.669.267.925.007L7.06 2.784a.643.643 0 0 1 .92 0l4.912 4.983a.642.642 0 0 0 .918 0"
        fill="currentcolor"
        stroke="currentcolor"
      />
      <path
        d="M13.81 7.767a.666.666 0 0 0 0-.932L8.439 1.386a1.285 1.285 0 0 0-1.838 0l-5.41 5.489a.666.666 0 0 0-.007.925c.252.264.669.267.925.007L7.06 2.784a.643.643 0 0 1 .92 0l4.912 4.983a.642.642 0 0 0 .918 0"
        stroke="currentcolor"
        fill="currentcolor"
      />
    </symbol>
  </defs>
</svg>
