<svg width="48" height="48" viewBox="0 0 48 48" fill="none" xmlns="http://www.w3.org/2000/svg">
<path fill-rule="evenodd" clip-rule="evenodd" d="M34.4002 15.6994H29.5746C29.4017 15.6994 29.2366 15.7683 29.1144 15.8892L27.2931 17.7118C26.9928 18.0121 26.4884 17.9471 26.2726 17.5805C23.3853 12.6509 23.8013 13.362 23.2371 12.3974C22.8068 11.6629 21.798 11.5342 21.1961 12.1361L20.5474 12.7835L20.5578 12.8017L17.8499 15.5096C17.7277 15.6305 17.5626 15.6994 17.3897 15.6994H13.6002V7.89937C13.6002 7.18177 14.1826 6.59937 14.9002 6.59937H33.1002C33.8178 6.59937 34.4002 7.18177 34.4002 7.89937V15.6994ZM34.4002 26.0996C34.4002 26.8172 33.8178 27.3996 33.1002 27.3996H14.9002C14.1826 27.3996 13.6002 26.8172 13.6002 26.0996V18.2996H18.4687C18.6416 18.2996 18.8067 18.2307 18.9289 18.1098L21.3209 15.7165C21.6212 15.4149 22.1256 15.4799 22.3414 15.8478C25.1988 20.7254 24.6294 19.7491 25.3561 21.001C25.7838 21.7381 26.7939 21.8707 27.3971 21.2688L30.1895 18.4894C30.3104 18.3672 30.4755 18.2996 30.6471 18.2996H34.4002V26.0996ZM34.4 4H13.6C12.1635 4 11 5.1635 11 6.6V27.4C11 28.8352 12.1635 30 13.6 30H34.4C35.8365 30 37 28.8352 37 27.4V6.6C37 5.1635 35.8365 4 34.4 4V4Z" fill="#ABABAB"/>
</svg>
